<mxfile host="app.diagrams.net" modified="2023-10-02T11:40:23.752Z" agent="Mozilla/5.0 (Windows NT 10.0; Win64; x64; rv:109.0) Gecko/20100101 Firefox/118.0" version="22.0.0" etag="ROjRHPM5YbkmQAfnhzQ5" type="github">
  <diagram name="Page-1" id="xqMCXs8MPfDr0kL2Y1eO">
    <mxGraphModel>
      <root>
        <mxCell id="0" />
        <mxCell id="1" parent="0" />
      </root>
    </mxGraphModel>
  </diagram>
</mxfile>
